<svg width="121" height="120" viewBox="0 0 121 120" fill="none" xmlns="http://www.w3.org/2000/svg">
<path fill-rule="evenodd" clip-rule="evenodd" d="M22.2021 23.8113C19.6613 26.6495 19.8842 31.0428 22.967 33.2805C25.6043 35.1948 28.3686 36.9092 31.2362 38.4143C31.0234 38.7644 30.8412 39.1402 30.6945 39.5392L18.8587 71.7222C17.6346 75.0505 19.3405 78.741 22.6688 79.965C25.9972 81.189 29.6876 79.4832 30.9116 76.1548L42.7474 43.9718C42.8382 43.7251 42.9128 43.4763 42.9719 43.2267C46.7688 44.3804 50.6743 45.2009 54.6448 45.6708L54.459 79.1302C54.4385 82.8242 57.4164 85.8354 61.1104 85.8559C64.8044 85.8764 67.8156 82.8985 67.8361 79.2045L68.021 45.9177C72.1636 45.5818 76.2521 44.8646 80.2364 43.7828L85.4824 57.4041C86.7569 60.7134 90.4728 62.363 93.7822 61.0884C97.0915 59.8139 98.741 56.098 97.4665 52.7887L92.2535 39.2529C94.5558 38.124 96.798 36.8617 98.9681 35.4699C102.175 33.4134 102.65 29.0403 100.277 26.0605C97.9037 23.0807 93.5828 22.6326 90.3233 24.604C81.544 29.9137 71.3788 32.6194 61.0267 32.3212C50.6747 32.0229 40.6821 28.7365 32.2231 22.9302C29.0824 20.7745 24.7429 20.973 22.2021 23.8113ZM61.0854 91.9024C58.0142 91.9024 55.5244 94.3921 55.5244 97.4634C55.5244 100.535 58.0142 103.024 61.0854 103.024C64.1567 103.024 66.6464 100.535 66.6464 97.4634C66.6464 94.3921 64.1567 91.9024 61.0854 91.9024ZM93.1359 77.8863C89.7941 75.1182 84.7845 77.975 85.465 82.2606C85.6765 83.5923 85.2966 84.9555 84.4234 85.9829C81.6273 89.2731 84.4708 94.2595 88.7263 93.5285C90.0551 93.3002 91.4218 93.6675 92.4602 94.5276C95.802 97.2956 100.812 94.4389 100.131 90.1532C99.9197 88.8216 100.3 87.4584 101.173 86.4309C103.969 83.1408 101.125 78.1544 96.8699 78.8854C95.541 79.1136 94.1743 78.7464 93.1359 77.8863Z" fill="url(#paint0_linear_1761_6470)"/>
<g filter="url(#filter0_d_1761_6470)">
<path d="M84.7503 77.7609C84.3165 75.0291 87.4967 73.2156 89.6269 74.9801L93.714 78.3654C94.3882 78.9239 95.2727 79.16 96.1355 79.0117L101.27 78.1298C104.033 77.6551 105.879 80.8929 104.064 83.0292L100.69 86.9989C100.123 87.666 99.876 88.5474 100.013 89.4121L100.846 94.6534C101.279 97.3853 98.0992 99.1988 95.969 97.4343L91.882 94.049C91.2077 93.4905 90.3232 93.2544 89.4604 93.4026L84.326 94.2846C81.5629 94.7593 79.7166 91.5215 81.5322 89.3852L84.9057 85.4155C85.4727 84.7484 85.7199 83.8669 85.5826 83.0023L84.7503 77.7609Z" fill="#DF82FF"/>
<path d="M90.5837 73.8249C87.3884 71.1782 82.6182 73.8984 83.2689 77.9962L84.1012 83.2375C84.1698 83.6699 84.0462 84.1106 83.7627 84.4442L80.3892 88.4138C77.6658 91.6183 80.4353 96.4749 84.58 95.763L89.7143 94.881C90.1457 94.8069 90.588 94.9249 90.9251 95.2041L95.0122 98.5895C98.2075 101.236 102.978 98.516 102.327 94.4182L101.495 89.1768C101.426 88.7445 101.55 88.3038 101.833 87.9702L105.207 84.0006C107.93 80.7961 105.161 75.9394 101.016 76.6514L95.8816 77.5334C95.4502 77.6075 95.0079 77.4895 94.6708 77.2102L90.5837 73.8249Z" stroke="url(#paint1_linear_1761_6470)" stroke-width="3" stroke-linejoin="round"/>
</g>
<g opacity="0.4" filter="url(#filter1_f_1761_6470)">
<path fill-rule="evenodd" clip-rule="evenodd" d="M86.4301 78.5801C85.6511 79.5387 85.236 80.8188 85.465 82.2606C85.6764 83.5922 85.2965 84.9555 84.4234 85.9829C81.6273 89.2731 84.4708 94.2595 88.7262 93.5285C90.0551 93.3002 91.4218 93.6675 92.4601 94.5276C95.6653 97.1824 100.405 94.663 100.187 90.6714C97.231 90.2415 94.3528 89.019 91.8857 86.9728C89.1533 84.7066 87.3207 81.7578 86.4301 78.5801Z" fill="white"/>
</g>
<g opacity="0.2" filter="url(#filter2_f_1761_6470)">
<path fill-rule="evenodd" clip-rule="evenodd" d="M86.0203 82.4413L86.0203 82.4413L86.0209 82.4421C86.0223 82.4447 86.0295 82.4607 86.0321 82.4887C86.0347 82.5167 86.0306 82.5338 86.0297 82.5366L86.0293 82.5376L86.0293 82.5376C86.0292 82.5378 86.0242 82.5475 86.0079 82.5671C85.9914 82.587 85.9828 82.5936 85.9828 82.5937L85.9819 82.5942C85.9793 82.5956 85.9633 82.6028 85.9353 82.6054C85.9073 82.608 85.8902 82.6039 85.8874 82.603L85.8865 82.6026C85.8865 82.6026 85.8768 82.5977 85.8569 82.5812C85.8372 82.5649 85.8305 82.5563 85.8304 82.5561L85.8304 82.5561L85.8298 82.5552C85.8285 82.5527 85.8212 82.5366 85.8186 82.5086C85.816 82.4807 85.8202 82.4636 85.821 82.4608L85.8214 82.4598L85.8214 82.4598C85.8215 82.4596 85.8265 82.4499 85.8428 82.4302C85.8591 82.4106 85.8678 82.4039 85.8679 82.4037L85.8679 82.4037L85.8688 82.4031C85.8714 82.4018 85.8874 82.3945 85.9154 82.3919C85.9434 82.3893 85.9605 82.3935 85.9633 82.3943L85.9642 82.3947C85.9643 82.3947 85.974 82.3997 85.9938 82.4162C86.0135 82.4325 86.0202 82.4411 86.0203 82.4413ZM99.6557 79.2563C100.634 83.4136 99.7204 87.9641 96.7838 91.5047C95.6439 92.8791 94.2981 93.982 92.8286 94.8059C96.1565 97.0874 100.787 94.2841 100.131 90.1533C99.9196 88.8217 100.3 87.4585 101.173 86.431C103.291 83.9386 102.173 80.4726 99.6557 79.2563Z" fill="white"/>
</g>
<g opacity="0.7" filter="url(#filter3_f_1761_6470)">
<path fill-rule="evenodd" clip-rule="evenodd" d="M99.6888 93.0359C99.9412 92.5465 100.109 92.0028 100.169 91.4185C96.6154 91.2735 93.0787 90.0045 90.1295 87.5585C88.0052 85.7965 86.4247 83.622 85.4079 81.248C85.3922 81.5747 85.4099 81.913 85.4651 82.2607C85.6766 83.5923 85.2967 84.9556 84.4236 85.983C83.7312 86.7976 83.3847 87.7163 83.3197 88.6264C84.3782 88.1446 85.5482 88.0464 86.5486 88.683C89.882 91.1842 93.1603 91.5282 95.6781 91.7925C97.5055 91.9843 98.9322 92.134 99.6888 93.0359Z" fill="white"/>
</g>
<g opacity="0.5" filter="url(#filter4_f_1761_6470)">
<ellipse cx="1.0753" cy="1.49708" rx="1.0753" ry="1.49708" transform="matrix(0.6384 -0.769705 0.769705 0.638399 61.9634 95.314)" fill="white"/>
</g>
<ellipse cx="101.297" cy="79.9669" rx="0.842006" ry="1.21719" transform="rotate(-85.1121 101.297 79.9669)" fill="white"/>
<ellipse cx="0.695647" cy="0.990613" rx="0.695647" ry="0.990613" transform="matrix(0.415314 -0.909678 0.909679 0.415312 87.1341 76.1924)" fill="white"/>
<ellipse opacity="0.5" cx="98.4285" cy="80.3566" rx="0.629597" ry="0.643963" transform="rotate(-78.3547 98.4285 80.3566)" fill="white"/>
<defs>
<filter id="filter0_d_1761_6470" x="73.7978" y="71.271" width="38.0002" height="37.8721" filterUnits="userSpaceOnUse" color-interpolation-filters="sRGB">
<feFlood flood-opacity="0" result="BackgroundImageFix"/>
<feColorMatrix in="SourceAlpha" type="matrix" values="0 0 0 0 0 0 0 0 0 0 0 0 0 0 0 0 0 0 127 0" result="hardAlpha"/>
<feOffset dy="4"/>
<feGaussianBlur stdDeviation="2"/>
<feComposite in2="hardAlpha" operator="out"/>
<feColorMatrix type="matrix" values="0 0 0 0 0 0 0 0 0 0 0 0 0 0 0 0 0 0 0.25 0"/>
<feBlend mode="normal" in2="BackgroundImageFix" result="effect1_dropShadow_1761_6470"/>
<feBlend mode="normal" in="SourceGraphic" in2="effect1_dropShadow_1761_6470" result="shape"/>
</filter>
<filter id="filter1_f_1761_6470" x="81.3081" y="76.5801" width="20.8857" height="21.0425" filterUnits="userSpaceOnUse" color-interpolation-filters="sRGB">
<feFlood flood-opacity="0" result="BackgroundImageFix"/>
<feBlend mode="normal" in="SourceGraphic" in2="BackgroundImageFix" result="shape"/>
<feGaussianBlur stdDeviation="1" result="effect1_foregroundBlur_1761_6470"/>
</filter>
<filter id="filter2_f_1761_6470" x="83.8178" y="77.2563" width="20.4702" height="20.3662" filterUnits="userSpaceOnUse" color-interpolation-filters="sRGB">
<feFlood flood-opacity="0" result="BackgroundImageFix"/>
<feBlend mode="normal" in="SourceGraphic" in2="BackgroundImageFix" result="shape"/>
<feGaussianBlur stdDeviation="1" result="effect1_foregroundBlur_1761_6470"/>
</filter>
<filter id="filter3_f_1761_6470" x="81.3197" y="79.248" width="20.8498" height="15.7881" filterUnits="userSpaceOnUse" color-interpolation-filters="sRGB">
<feFlood flood-opacity="0" result="BackgroundImageFix"/>
<feBlend mode="normal" in="SourceGraphic" in2="BackgroundImageFix" result="shape"/>
<feGaussianBlur stdDeviation="1" result="effect1_foregroundBlur_1761_6470"/>
</filter>
<filter id="filter4_f_1761_6470" x="59.4607" y="91.1777" width="8.68299" height="8.52881" filterUnits="userSpaceOnUse" color-interpolation-filters="sRGB">
<feFlood flood-opacity="0" result="BackgroundImageFix"/>
<feBlend mode="normal" in="SourceGraphic" in2="BackgroundImageFix" result="shape"/>
<feGaussianBlur stdDeviation="1.5" result="effect1_foregroundBlur_1761_6470"/>
</filter>
<linearGradient id="paint0_linear_1761_6470" x1="18.6408" y1="70.8292" x2="87.6917" y2="122.621" gradientUnits="userSpaceOnUse">
<stop stop-color="#E3D89D"/>
<stop offset="0.291799" stop-color="#FFC34F"/>
<stop offset="0.576025" stop-color="#FFC34F"/>
<stop offset="0.697503" stop-color="#FFC34F"/>
<stop offset="1" stop-color="#E3D89D"/>
</linearGradient>
<linearGradient id="paint1_linear_1761_6470" x1="87.8111" y1="70.8607" x2="94.3595" y2="111.774" gradientUnits="userSpaceOnUse">
<stop offset="0.319393" stop-color="#190238"/>
<stop offset="1" stop-color="#04030B"/>
</linearGradient>
</defs>
</svg>
