<svg width="17" height="18" viewBox="0 0 17 18" fill="none" xmlns="http://www.w3.org/2000/svg">
<path d="M7.56215 1.53451C7.88431 0.663889 9.11569 0.663888 9.43785 1.53451L11.0413 5.86785C11.1426 6.14157 11.3584 6.35738 11.6321 6.45867L15.9655 8.06215C16.8361 8.38431 16.8361 9.61569 15.9655 9.93785L11.6321 11.5413C11.3584 11.6426 11.1426 11.8584 11.0413 12.1321L9.43785 16.4655C9.11569 17.3361 7.88431 17.3361 7.56215 16.4655L5.95867 12.1321C5.85738 11.8584 5.64157 11.6426 5.36785 11.5413L1.03451 9.93785C0.163889 9.61569 0.163888 8.38431 1.03451 8.06215L5.36785 6.45867C5.64157 6.35738 5.85738 6.14157 5.95867 5.86785L7.56215 1.53451Z" fill="#F1C6FF"/>
</svg>
