<svg width="34" height="34" viewBox="0 0 34 34" fill="none" xmlns="http://www.w3.org/2000/svg">
<path d="M9.89184 2.20352C9.94241 0.347584 12.2745 -0.443867 13.4443 0.997946L19.8358 8.87634C20.2036 9.32964 20.751 9.59966 21.3345 9.61556L31.4758 9.89186C33.3317 9.94242 34.1232 12.2746 32.6813 13.4443L24.8029 19.8358C24.3496 20.2036 24.0796 20.751 24.0637 21.3345L23.7874 31.4758C23.7369 33.3317 21.4047 34.1232 20.235 32.6814L13.8434 24.803C13.4757 24.3497 12.9283 24.0796 12.3448 24.0637L2.20351 23.7874C0.347572 23.7369 -0.44388 21.4047 0.997933 20.235L8.87633 13.8435C9.32963 13.4757 9.59965 12.9283 9.61555 12.3448L9.89184 2.20352Z" fill="#DF82FF"/>
</svg>
