<svg width="37" height="38" viewBox="0 0 37 38" fill="none" xmlns="http://www.w3.org/2000/svg">
<path d="M17.5621 1.53451C17.8843 0.663889 19.1157 0.663888 19.4379 1.53451L23.7422 13.1669C23.8435 13.4407 24.0593 13.6565 24.3331 13.7578L35.9655 18.0621C36.8361 18.3843 36.8361 19.6157 35.9655 19.9379L24.3331 24.2422C24.0593 24.3435 23.8435 24.5593 23.7422 24.8331L19.4379 36.4655C19.1157 37.3361 17.8843 37.3361 17.5621 36.4655L13.2578 24.8331C13.1565 24.5593 12.9407 24.3435 12.6669 24.2422L1.03451 19.9379C0.163889 19.6157 0.163888 18.3843 1.03451 18.0621L12.6669 13.7578C12.9407 13.6565 13.1565 13.4407 13.2578 13.1669L17.5621 1.53451Z" fill="#DF82FF"/>
</svg>
